<svg width="16" height="16" viewBox="0 0 16 16" fill="none" xmlns="http://www.w3.org/2000/svg">
<path d="M14.4 12.3555C14.4 12.6855 14.2774 13.002 14.0592 13.2354C13.841 13.4688 13.545 13.5999 13.2364 13.5999H2.76364C2.45503 13.5999 2.15905 13.4688 1.94083 13.2354C1.7226 13.002 1.60001 12.6855 1.60001 12.3555V5.51101C1.60001 5.18097 1.7226 4.86444 1.94083 4.63106C2.15905 4.39768 2.45503 4.26657 2.76364 4.26657H5.09092L6.25455 2.3999H9.74546L10.9091 4.26657H13.2364C13.545 4.26657 13.841 4.39768 14.0592 4.63106C14.2774 4.86444 14.4 5.18097 14.4 5.51101V12.3555Z" stroke="#0C261F" stroke-opacity="0.65" stroke-linecap="round" stroke-linejoin="round"/>
<path d="M8.00001 11.1999C9.32549 11.1999 10.4 10.1254 10.4 8.7999C10.4 7.47442 9.32549 6.3999 8.00001 6.3999C6.67452 6.3999 5.60001 7.47442 5.60001 8.7999C5.60001 10.1254 6.67452 11.1999 8.00001 11.1999Z" stroke="#0C261F" stroke-opacity="0.65" stroke-linecap="round" stroke-linejoin="round"/>
</svg>
