<svg width="173" height="20" viewBox="0 0 173 20" fill="none" xmlns="http://www.w3.org/2000/svg">
<path fill-rule="evenodd" clip-rule="evenodd" d="M64.1753 1.75444C64.2202 0.765762 65.0291 -0.0431533 66.0627 0.00178642C67.0514 0.0467262 67.8603 0.855642 67.8154 1.88926C67.7704 2.87793 66.9615 3.64191 66.0178 3.64191C64.9842 3.64191 64.1753 2.78805 64.1753 1.75444ZM137.336 19.6405V16.6745H140.482V3.10265H136.572V0.0916828H143.538V11.4165L147.313 7.82132H145.92V4.90024H153.604V7.82132H151.043L147.942 10.9222L151.178 16.6745H154.099V19.6405H146.324V16.6745H147.852L145.74 12.8995L143.493 15.0566V16.6745H145.47V19.6405H137.336ZM45.6598 19.6405V16.6745H48.1315V7.82136H45.1655V4.90027H51.1874V7.37196C52.3109 6.20352 53.8838 4.63063 56.2656 4.63063C57.8834 4.63063 59.681 5.75413 59.681 7.59666C59.726 8.49545 59.0968 9.25943 58.198 9.34931H58.1531C57.5239 9.39425 56.9397 9.03473 56.6701 8.49545C56.4903 8.09099 56.0859 7.82136 55.5915 7.82136C53.5692 7.82136 51.5919 10.0234 51.0975 11.3716V16.7194H53.4794V19.6855L45.6598 19.6405ZM116.393 16.6745V19.6405H124.527V16.6745H122.595V15.0566L124.887 12.8995L126.999 16.6745H125.471V19.6405H133.201V16.6745H130.28L127.044 10.8772L130.145 7.77638H132.661V4.8553H124.977V7.82132H126.37L122.595 11.4165V0.0916828H115.629V3.10265H119.539V16.6745H116.393ZM28.7172 15.8655C28.7172 16.7643 29.3463 17.1688 30.4698 17.1688C33.6156 17.1688 36.4468 15.4611 36.4468 13.259V12.495L36.0873 12.54L35.9838 12.5569C33.7278 12.9246 28.7172 13.7415 28.7172 15.8655ZM34.9583 10.3961C31.0511 11.0616 25.5255 12.0027 25.5255 16.0453C25.5255 18.6518 27.413 20 30.1093 20C32.8057 20 35.0078 19.0113 36.4009 17.5283V19.6854H41.4342V16.7194H39.322V9.70879C39.322 6.38324 37.2997 4.58565 32.8956 4.58565C31.2778 4.58565 26.9636 5.25975 26.9636 8.45047V8.63023C27.0085 9.39421 27.6826 10.0234 28.4915 9.97843C29.499 9.97843 29.7309 9.48488 30.003 8.90569C30.1072 8.68397 30.2173 8.44971 30.379 8.22578C30.7834 7.64156 31.5474 7.14722 33.4798 7.14722C35.0977 7.14722 36.311 7.73144 36.311 9.30433V10.1582C35.8933 10.2368 35.438 10.3144 34.9583 10.3961ZM165.333 4.58565C161.108 4.58565 157.693 8.00108 157.693 12.2254C157.693 16.4498 161.108 19.8652 165.333 19.8652C169.557 19.8652 172.973 16.4498 172.973 12.2254C172.973 8.00108 169.557 4.58565 165.333 4.58565ZM160.795 12.2254C160.795 14.742 162.862 16.8092 165.379 16.8092C167.895 16.8092 169.962 14.742 169.962 12.2254C169.962 9.70876 167.895 7.64153 165.379 7.64153C162.817 7.68647 160.795 9.70876 160.795 12.2254ZM110.282 9.97841H102.597C103.136 8.36058 104.664 7.28202 106.372 7.28202C108.349 7.28202 109.787 8.2707 110.282 9.97841ZM99.0466 12.3602C99.0466 8.36059 101.923 4.58565 106.417 4.58565C110.371 4.58565 113.607 7.82132 113.607 11.776V11.9108V12.54H102.147V12.8096C102.103 15.1914 104.035 17.1688 106.417 17.1688H106.507C107.99 17.2137 109.428 16.5396 110.326 15.3263C110.956 14.5173 111.36 14.2926 111.989 14.2926C112.618 14.2926 113.158 14.787 113.203 15.4611V15.551C113.203 17.3485 110.551 19.9551 106.552 19.9551C101.518 19.9551 99.0915 16.0902 99.0466 12.3602ZM62.2421 16.6744V19.6404H69.8818V16.6744H67.7247V4.85524H62.287V7.82126H64.5789V16.6744H62.2421ZM0.674097 19.6405V16.6744H2.83121V7.82131H0V4.85529H5.97699V5.57432C6.29157 5.25974 7.10048 4.54071 8.85313 4.54071C10.6058 4.54071 11.909 5.39456 12.2236 5.8889C12.5382 5.48444 14.0212 4.58565 15.8637 4.58565C18.2006 4.58565 20.4476 5.8889 20.4476 8.40553V16.6744H22.38V19.6405H15.8188V16.6744H17.5265V9.25938C17.5265 8.00107 16.7176 7.46179 15.4593 7.46179C13.8414 7.46179 13.2123 8.36059 13.2123 9.3942V16.6744H14.92V19.6405H8.53856V16.6744H10.2463V9.34926C10.2463 8.04601 9.43735 7.46179 8.17904 7.46179C6.7859 7.46179 5.97699 8.13589 5.97699 9.34926V16.6744H7.6847V19.6405H0.674097ZM74.2397 16.6744V19.6405H81.2503V16.6744H79.5425V9.34926C79.5425 8.13589 80.4863 7.46179 81.7895 7.46179C83.0928 7.46179 83.8568 8.04601 83.8568 9.34926V16.6744H82.1491V19.6405H88.5305V16.6744H86.8228V9.3942C86.8228 8.36059 87.407 7.46179 89.0248 7.46179C90.2831 7.46179 91.0921 8.00107 91.0921 9.25938V16.6744H89.3844V19.6405H95.9456V16.6744H94.0132V8.40553C94.0132 5.8889 91.7212 4.58565 89.4293 4.58565C87.5868 4.58565 86.1038 5.48444 85.7892 5.8889C85.5195 5.39456 84.1713 4.54071 82.4187 4.54071C80.666 4.54071 79.8571 5.25974 79.5425 5.57432V4.85529H73.5656V7.82131H76.3968V16.6744H74.2397Z" fill="black"/>
</svg>
