<svg width="24" height="24" viewBox="0 0 24 24" fill="none" xmlns="http://www.w3.org/2000/svg">
<path fill-rule="evenodd" clip-rule="evenodd" d="M1.5 4.81458H6.47699V5.03361C6.47699 5.23584 6.59881 5.41816 6.78565 5.49555C6.97249 5.57294 7.18754 5.53016 7.33054 5.38716C7.57911 5.1386 8.26776 4.5 9.85313 4.5C10.6487 4.5 11.3403 4.69401 11.8645 4.94103C12.4085 5.19731 12.7167 5.48298 12.8018 5.61664C12.8891 5.75381 13.0376 5.83997 13.2 5.84763C13.3624 5.8553 13.5184 5.78351 13.6183 5.65517C13.6485 5.61634 13.7486 5.51953 13.943 5.39016C14.1282 5.26693 14.3737 5.13079 14.6681 5.00426C15.258 4.75073 16.0221 4.54494 16.8637 4.54494C17.9466 4.54494 18.9812 4.84804 19.732 5.41114C20.4692 5.96402 20.9476 6.77506 20.9476 7.86482V16.1337C20.9476 16.4098 21.1715 16.6337 21.4476 16.6337H22.88V18.5998H17.3188V16.6337H18.5265C18.8026 16.6337 19.0265 16.4098 19.0265 16.1337V8.71867C19.0265 7.97521 18.7819 7.36773 18.2801 6.95995C17.7967 6.56723 17.1487 6.42108 16.4593 6.42108C15.5587 6.42108 14.8562 6.67293 14.3783 7.14336C13.9014 7.6128 13.7123 8.23692 13.7123 8.85349V16.1337C13.7123 16.4098 13.9362 16.6337 14.2123 16.6337H15.42V18.5998H10.0386V16.6337H11.2463C11.5224 16.6337 11.7463 16.4098 11.7463 16.1337V8.80855C11.7463 8.04896 11.5062 7.42296 11.0104 6.99688C10.5278 6.58213 9.87666 6.42108 9.17904 6.42108C8.40889 6.42108 7.72768 6.60693 7.2316 7.02897C6.72344 7.46129 6.47699 8.08391 6.47699 8.80855V16.1337C6.47699 16.4098 6.70085 16.6337 6.97699 16.6337H8.1847V18.5998H2.1741V16.6337H3.83121C4.10735 16.6337 4.33121 16.4098 4.33121 16.1337V7.2806C4.33121 7.00446 4.10735 6.7806 3.83121 6.7806H1.5V4.81458Z" fill="#0C261F" fill-opacity="0.96"/>
</svg>
