<svg width="24" height="24" viewBox="0 0 24 24" fill="none" xmlns="http://www.w3.org/2000/svg">
<path d="M9.94999 16.9C9.75669 16.9 9.59999 16.7433 9.59999 16.55C9.59999 16.3567 9.75669 16.2 9.94999 16.2C10.1433 16.2 10.3 16.3567 10.3 16.55C10.3 16.7433 10.1433 16.9 9.94999 16.9Z" fill="#037254" fill-opacity="0.96" stroke="#037254" stroke-opacity="0.96" stroke-linecap="round" stroke-linejoin="round"/>
<path d="M14.85 16.9C14.6567 16.9 14.5 16.7433 14.5 16.55C14.5 16.3567 14.6567 16.2 14.85 16.2C15.0433 16.2 15.2 16.3567 15.2 16.55C15.2 16.7433 15.0433 16.9 14.85 16.9Z" fill="#037254" fill-opacity="0.96" stroke="#037254" stroke-opacity="0.96" stroke-linecap="round" stroke-linejoin="round"/>
<path d="M5.40002 7.09998H7.43639L8.80075 13.3485C8.84731 13.5633 8.97481 13.7563 9.16096 13.8937C9.3471 14.031 9.58002 14.104 9.81893 14.0998H14.7673C15.0062 14.104 15.2391 14.031 15.4253 13.8937C15.6114 13.7563 15.7389 13.5633 15.7855 13.3485L16.6 9.43325H7.94548" stroke="#037254" stroke-opacity="0.96" stroke-linecap="round" stroke-linejoin="round"/>
</svg>
