<svg width="24" height="24" viewBox="0 0 24 24" fill="none" xmlns="http://www.w3.org/2000/svg">
<path d="M3 3H6.27273L8.46545 13.7117C8.54027 14.08 8.7452 14.4109 9.04436 14.6464C9.34351 14.8818 9.71784 15.0069 10.1018 14.9997H18.0545C18.4385 15.0069 18.8129 14.8818 19.112 14.6464C19.4112 14.4109 19.6161 14.08 19.6909 13.7117L21 6.9999H7.09091M11 19C11 19.5523 10.5523 20 10 20C9.44772 20 9 19.5523 9 19C9 18.4477 9.44772 18 10 18C10.5523 18 11 18.4477 11 19ZM19 19C19 19.5523 18.5523 20 18 20C17.4477 20 17 19.5523 17 19C17 18.4477 17.4477 18 18 18C18.5523 18 19 18.4477 19 19Z" stroke="#0C261F" stroke-opacity="0.96" stroke-width="2" stroke-linecap="round" stroke-linejoin="round"/>
</svg>
