<svg width="21" height="22" viewBox="0 0 21 22" fill="none" xmlns="http://www.w3.org/2000/svg">
<path d="M12.23 20C12.0542 20.3031 11.8018 20.5547 11.4982 20.7295C11.1946 20.9044 10.8504 20.9965 10.5 20.9965C10.1496 20.9965 9.80539 20.9044 9.50177 20.7295C9.19816 20.5547 8.94581 20.3031 8.77 20M16.5 7C16.5 5.4087 15.8679 3.88258 14.7426 2.75736C13.6174 1.63214 12.0913 1 10.5 1C8.9087 1 7.38258 1.63214 6.25736 2.75736C5.13214 3.88258 4.5 5.4087 4.5 7C4.5 14 1.5 16 1.5 16H19.5C19.5 16 16.5 14 16.5 7Z" stroke="#0C261F" stroke-opacity="0.65" stroke-width="2" stroke-linecap="round" stroke-linejoin="round"/>
</svg>
