<svg width="32" height="32" viewBox="0 0 32 32" fill="none" xmlns="http://www.w3.org/2000/svg">
<path d="M15.9998 20C18.209 20 19.9998 18.2091 19.9998 16C19.9998 13.7908 18.209 12 15.9998 12C13.7907 12 11.9998 13.7908 11.9998 16C11.9998 18.2091 13.7907 20 15.9998 20Z" stroke="#0C261F" stroke-opacity="0.96" stroke-width="2" stroke-linecap="round" stroke-linejoin="round"/>
<path d="M24.9695 19.6363C24.8082 20.0019 24.7601 20.4075 24.8313 20.8007C24.9026 21.1939 25.0901 21.5567 25.3695 21.8424L25.4423 21.9151C25.6677 22.1403 25.8465 22.4076 25.9685 22.7019C26.0905 22.9962 26.1533 23.3117 26.1533 23.6303C26.1533 23.9488 26.0905 24.2643 25.9685 24.5586C25.8465 24.8529 25.6677 25.1203 25.4423 25.3454C25.2171 25.5708 24.9498 25.7496 24.6555 25.8716C24.3612 25.9936 24.0457 26.0564 23.7271 26.0564C23.4085 26.0564 23.0931 25.9936 22.7988 25.8716C22.5045 25.7496 22.2371 25.5708 22.012 25.3454L21.9392 25.2727C21.6536 24.9932 21.2907 24.8058 20.8975 24.7345C20.5043 24.6632 20.0988 24.7113 19.7332 24.8727C19.3747 25.0263 19.0689 25.2815 18.8535 25.6067C18.6382 25.9319 18.5226 26.3129 18.521 26.703V26.9091C18.521 27.552 18.2656 28.1686 17.811 28.6232C17.3564 29.0779 16.7398 29.3333 16.0968 29.3333C15.4539 29.3333 14.8372 29.0779 14.3826 28.6232C13.928 28.1686 13.6726 27.552 13.6726 26.9091V26.8C13.6632 26.3988 13.5333 26.0097 13.2999 25.6832C13.0664 25.3568 12.7401 25.1082 12.3635 24.9697C11.9979 24.8083 11.5923 24.7602 11.1991 24.8315C10.8059 24.9028 10.4431 25.0902 10.1574 25.3697L10.0847 25.4424C9.85954 25.6678 9.59217 25.8466 9.29787 25.9686C9.00358 26.0906 8.68812 26.1534 8.36953 26.1534C8.05095 26.1534 7.73549 26.0906 7.44119 25.9686C7.1469 25.8466 6.87953 25.6678 6.65438 25.4424C6.42899 25.2172 6.25018 24.9499 6.12818 24.6556C6.00618 24.3613 5.94338 24.0458 5.94338 23.7272C5.94338 23.4087 6.00618 23.0932 6.12818 22.7989C6.25018 22.5046 6.42899 22.2372 6.65438 22.0121L6.72711 21.9394C7.00655 21.6537 7.194 21.2908 7.2653 20.8976C7.33659 20.5044 7.28846 20.0989 7.12711 19.7333C6.97346 19.3748 6.71833 19.069 6.39313 18.8537C6.06793 18.6383 5.68685 18.5227 5.29681 18.5212H5.09075C4.4478 18.5212 3.83118 18.2658 3.37655 17.8111C2.92191 17.3565 2.6665 16.7399 2.6665 16.0969C2.6665 15.454 2.92191 14.8374 3.37655 14.3827C3.83118 13.9281 4.4478 13.6727 5.09075 13.6727H5.19984C5.60104 13.6633 5.99015 13.5334 6.31656 13.3C6.64298 13.0665 6.89161 12.7402 7.03014 12.3636C7.19149 11.998 7.23962 11.5925 7.16833 11.1992C7.09703 10.806 6.90958 10.4432 6.63014 10.1575L6.55741 10.0848C6.33202 9.85966 6.15321 9.5923 6.03121 9.298C5.90921 9.0037 5.84642 8.68824 5.84642 8.36966C5.84642 8.05107 5.90921 7.73561 6.03121 7.44132C6.15321 7.14702 6.33202 6.87965 6.55741 6.6545C6.78256 6.42911 7.04993 6.2503 7.34422 6.1283C7.63852 6.0063 7.95398 5.94351 8.27256 5.94351C8.59115 5.94351 8.90661 6.0063 9.20091 6.1283C9.4952 6.2503 9.76257 6.42911 9.98772 6.6545L10.0604 6.72723C10.3461 7.00667 10.7089 7.19412 11.1022 7.26542C11.4954 7.33672 11.9009 7.28858 12.2665 7.12723H12.3635C12.722 6.97358 13.0277 6.71845 13.2431 6.39325C13.4585 6.06805 13.574 5.68697 13.5756 5.29693V5.09087C13.5756 4.44792 13.831 3.8313 14.2856 3.37667C14.7403 2.92204 15.3569 2.66663 15.9998 2.66663C16.6428 2.66663 17.2594 2.92204 17.714 3.37667C18.1687 3.8313 18.4241 4.44792 18.4241 5.09087V5.19996C18.4256 5.59 18.5412 5.97108 18.7566 6.29628C18.9719 6.62148 19.2777 6.87661 19.6362 7.03026C20.0018 7.19161 20.4073 7.23975 20.8006 7.16845C21.1938 7.09715 21.5566 6.9097 21.8423 6.63026L21.915 6.55754C22.1401 6.33214 22.4075 6.15333 22.7018 6.03133C22.9961 5.90933 23.3116 5.84654 23.6301 5.84654C23.9487 5.84654 24.2642 5.90933 24.5585 6.03133C24.8528 6.15333 25.1201 6.33214 25.3453 6.55754C25.5707 6.78268 25.7495 7.05005 25.8715 7.34435C25.9935 7.63865 26.0563 7.9541 26.0563 8.27269C26.0563 8.59127 25.9935 8.90673 25.8715 9.20103C25.7495 9.49533 25.5707 9.76269 25.3453 9.98784L25.2726 10.0606C24.9931 10.3462 24.8057 10.7091 24.7344 11.1023C24.6631 11.4955 24.7112 11.901 24.8726 12.2666V12.3636C25.0262 12.7221 25.2813 13.0279 25.6065 13.2432C25.9317 13.4586 26.3128 13.5742 26.7029 13.5757H26.9089C27.5519 13.5757 28.1685 13.8311 28.6231 14.2858C29.0778 14.7404 29.3332 15.357 29.3332 16C29.3332 16.6429 29.0778 17.2595 28.6231 17.7142C28.1685 18.1688 27.5519 18.4242 26.9089 18.4242H26.7998C26.4098 18.4258 26.0287 18.5413 25.7035 18.7567C25.3783 18.9721 25.1232 19.2778 24.9695 19.6363Z" stroke="#0C261F" stroke-opacity="0.96" stroke-width="2" stroke-linecap="round" stroke-linejoin="round"/>
</svg>
