<svg width="10" height="9" viewBox="0 0 10 9" fill="none" xmlns="http://www.w3.org/2000/svg">
<path d="M8.38313 1.20726C8.18765 0.983037 7.95556 0.805168 7.70011 0.683815C7.44466 0.562461 7.17086 0.5 6.89435 0.5C6.61784 0.5 6.34404 0.562461 6.08859 0.683815C5.83315 0.805168 5.60105 0.983037 5.40558 1.20726L4.9999 1.67238L4.59422 1.20726C4.19937 0.754559 3.66384 0.500235 3.10544 0.500235C2.54705 0.500235 2.01152 0.754559 1.61667 1.20726C1.22182 1.65996 1 2.27395 1 2.91416C1 3.55438 1.22182 4.16837 1.61667 4.62107L2.02235 5.08619L4.9999 8.5L7.97744 5.08619L8.38313 4.62107C8.57869 4.39695 8.73383 4.13086 8.83968 3.83798C8.94552 3.5451 9 3.23119 9 2.91416C9 2.59714 8.94552 2.28322 8.83968 1.99035C8.73383 1.69747 8.57869 1.43137 8.38313 1.20726V1.20726Z" stroke="#0C261F" stroke-opacity="0.65" stroke-linecap="round" stroke-linejoin="round"/>
</svg>
